<?xml version="1.0" encoding="UTF-8" standalone="no"?>
<!-- Created with Inkscape (http://www.inkscape.org/) -->

<svg
   xmlns:dc="http://purl.org/dc/elements/1.1/"
   xmlns:cc="http://creativecommons.org/ns#"
   xmlns:rdf="http://www.w3.org/1999/02/22-rdf-syntax-ns#"
   xmlns:svg="http://www.w3.org/2000/svg"
   xmlns="http://www.w3.org/2000/svg"
   xmlns:sodipodi="http://sodipodi.sourceforge.net/DTD/sodipodi-0.dtd"
   xmlns:inkscape="http://www.inkscape.org/namespaces/inkscape"
   width="110mm"
   height="80mm"
   viewBox="0 0 389.76375 283.46456"
   id="svg2"
   version="1.1"
   inkscape:version="0.91 r13725"
   sodipodi:docname="Associativity_of_binary_operations (without checkmarks).svg">
  <sodipodi:namedview
     id="base"
     pagecolor="#ffffff"
     bordercolor="#666666"
     borderopacity="1.0"
     inkscape:pageopacity="0.0"
     inkscape:pageshadow="2"
     inkscape:zoom="1.7014479"
     inkscape:cx="234.66779"
     inkscape:cy="140.66132"
     inkscape:document-units="mm"
     inkscape:current-layer="layer1"
     showgrid="false"
     inkscape:window-width="1364"
     inkscape:window-height="766"
     inkscape:window-x="0"
     inkscape:window-y="0"
     inkscape:window-maximized="0"
     inkscape:snap-others="true"
     inkscape:snap-nodes="true" />
  <defs
     id="defs4">
    <marker
       inkscape:stockid="Arrow1Mend"
       orient="auto"
       refY="0"
       refX="0"
       id="marker4486"
       style="overflow:visible"
       inkscape:isstock="true">
      <path
         inkscape:connector-curvature="0"
         id="path4488"
         d="M 0,0 5,-5 -12.5,0 5,5 0,0 Z"
         style="fill:#000000;fill-opacity:1;fill-rule:evenodd;stroke:#000000;stroke-width:1pt;stroke-opacity:1"
         transform="matrix(-0.4,0,0,-0.4,-4,0)" />
    </marker>
    <marker
       inkscape:stockid="Arrow1Mend"
       orient="auto"
       refY="0"
       refX="0"
       id="marker4450"
       style="overflow:visible"
       inkscape:isstock="true">
      <path
         id="path4452"
         d="M 0,0 5,-5 -12.5,0 5,5 0,0 Z"
         style="fill:#000000;fill-opacity:1;fill-rule:evenodd;stroke:#000000;stroke-width:1pt;stroke-opacity:1"
         transform="matrix(-0.4,0,0,-0.4,-4,0)"
         inkscape:connector-curvature="0" />
    </marker>
    <marker
       inkscape:isstock="true"
       style="overflow:visible"
       id="marker5130"
       refX="0"
       refY="0"
       orient="auto"
       inkscape:stockid="Arrow1Mend">
      <path
         transform="matrix(-0.4,0,0,-0.4,-4,0)"
         style="fill:#000000;fill-opacity:1;fill-rule:evenodd;stroke:#000000;stroke-width:1pt;stroke-opacity:1"
         d="M 0,0 5,-5 -12.5,0 5,5 0,0 Z"
         id="path5132"
         inkscape:connector-curvature="0" />
    </marker>
    <marker
       inkscape:stockid="Arrow1Mend"
       orient="auto"
       refY="0"
       refX="0"
       id="marker4930"
       style="overflow:visible"
       inkscape:isstock="true">
      <path
         inkscape:connector-curvature="0"
         id="path4932"
         d="M 0,0 5,-5 -12.5,0 5,5 0,0 Z"
         style="fill:#000000;fill-opacity:1;fill-rule:evenodd;stroke:#000000;stroke-width:1pt;stroke-opacity:1"
         transform="matrix(-0.4,0,0,-0.4,-4,0)" />
    </marker>
    <marker
       inkscape:stockid="Arrow1Mend"
       orient="auto"
       refY="0"
       refX="0"
       id="marker4541"
       style="overflow:visible"
       inkscape:isstock="true">
      <path
         inkscape:connector-curvature="0"
         id="path4543"
         d="M 0,0 5,-5 -12.5,0 5,5 0,0 Z"
         style="fill:#000000;fill-opacity:1;fill-rule:evenodd;stroke:#000000;stroke-width:1pt;stroke-opacity:1"
         transform="matrix(-0.4,0,0,-0.4,-4,0)" />
    </marker>
    <marker
       inkscape:stockid="Arrow1Mend"
       orient="auto"
       refY="0"
       refX="0"
       id="marker4407"
       style="overflow:visible"
       inkscape:isstock="true"
       inkscape:collect="always">
      <path
         inkscape:connector-curvature="0"
         id="path4409"
         d="M 0,0 5,-5 -12.5,0 5,5 0,0 Z"
         style="fill:#000000;fill-opacity:1;fill-rule:evenodd;stroke:#000000;stroke-width:1pt;stroke-opacity:1"
         transform="matrix(-0.4,0,0,-0.4,-4,0)" />
    </marker>
    <marker
       inkscape:isstock="true"
       style="overflow:visible"
       id="marker4327"
       refX="0"
       refY="0"
       orient="auto"
       inkscape:stockid="Arrow1Mend"
       inkscape:collect="always">
      <path
         inkscape:connector-curvature="0"
         transform="matrix(-0.4,0,0,-0.4,-4,0)"
         style="fill:#000000;fill-opacity:1;fill-rule:evenodd;stroke:#000000;stroke-width:1pt;stroke-opacity:1"
         d="M 0,0 5,-5 -12.5,0 5,5 0,0 Z"
         id="path4329" />
    </marker>
    <marker
       inkscape:isstock="true"
       style="overflow:visible"
       id="marker4443"
       refX="0"
       refY="0"
       orient="auto"
       inkscape:stockid="Arrow1Mend"
       inkscape:collect="always">
      <path
         transform="matrix(-0.4,0,0,-0.4,-4,0)"
         style="fill:#000000;fill-opacity:1;fill-rule:evenodd;stroke:#000000;stroke-width:1pt;stroke-opacity:1"
         d="M 0,0 5,-5 -12.5,0 5,5 0,0 Z"
         id="path4445"
         inkscape:connector-curvature="0" />
    </marker>
    <marker
       inkscape:stockid="Arrow1Mend"
       orient="auto"
       refY="0"
       refX="0"
       id="marker4233"
       style="overflow:visible"
       inkscape:isstock="true"
       inkscape:collect="always">
      <path
         id="path4235"
         d="M 0,0 5,-5 -12.5,0 5,5 0,0 Z"
         style="fill:#000000;fill-opacity:1;fill-rule:evenodd;stroke:#000000;stroke-width:1pt;stroke-opacity:1"
         transform="matrix(-0.4,0,0,-0.4,-4,0)"
         inkscape:connector-curvature="0" />
    </marker>
    <marker
       inkscape:isstock="true"
       style="overflow:visible"
       id="marker4510"
       refX="0"
       refY="0"
       orient="auto"
       inkscape:stockid="Arrow1Mend"
       inkscape:collect="always">
      <path
         transform="matrix(-0.4,0,0,-0.4,-4,0)"
         style="fill:#000000;fill-opacity:1;fill-rule:evenodd;stroke:#000000;stroke-width:1pt;stroke-opacity:1"
         d="M 0,0 5,-5 -12.5,0 5,5 0,0 Z"
         id="path4512"
         inkscape:connector-curvature="0" />
    </marker>
    <marker
       inkscape:stockid="Arrow1Lend"
       orient="auto"
       refY="0"
       refX="0"
       id="Arrow1Lend"
       style="overflow:visible"
       inkscape:isstock="true">
      <path
         id="path4165"
         d="M 0,0 5,-5 -12.5,0 5,5 0,0 Z"
         style="fill:#000000;fill-opacity:1;fill-rule:evenodd;stroke:#000000;stroke-width:1pt;stroke-opacity:1"
         transform="matrix(-0.8,0,0,-0.8,-10,0)"
         inkscape:connector-curvature="0" />
    </marker>
    <marker
       inkscape:stockid="Arrow1Mend"
       orient="auto"
       refY="0"
       refX="0"
       id="Arrow1Mend-4"
       style="overflow:visible"
       inkscape:isstock="true">
      <path
         inkscape:connector-curvature="0"
         id="path4171-7"
         d="M 0,0 5,-5 -12.5,0 5,5 0,0 Z"
         style="fill:#000000;fill-opacity:1;fill-rule:evenodd;stroke:#000000;stroke-width:1pt;stroke-opacity:1"
         transform="matrix(-0.4,0,0,-0.4,-4,0)" />
    </marker>
  </defs>
  <metadata
     id="metadata7">
    <rdf:RDF>
      <cc:Work
         rdf:about="">
        <dc:format>⠊⠍⠁⠛⠑/⠎⠧⠛+⠭⠍⠇</dc:format>
        <dc:type
           rdf:resource="http://purl.org/dc/dcmitype/StillImage" />
        <dc:title></dc:title>
      </cc:Work>
    </rdf:RDF>
  </metadata>
  <g
     id="layer1"
     inkscape:groupmode="layer"
     inkscape:label="Ebene 1"
     transform="translate(0,-768.89764)">
    <text
       xml:space="preserve"
       style="font-style:normal;font-weight:normal;font-size:40px;line-height:125%;font-family:sans-serif;letter-spacing:0px;word-spacing:0px;fill:#000000;fill-opacity:1;stroke:none;stroke-width:1px;stroke-linecap:butt;stroke-linejoin:miter;stroke-opacity:1"
       x="41.67408"
       y="790.64148"
       id="text4146"
       sodipodi:linespacing="125%"><tspan
         sodipodi:role="line"
         id="tspan4148"
         x="41.67408"
         y="790.64148"
         style="font-size:17.5px">x</tspan></text>
    <text
       xml:space="preserve"
       style="font-style:normal;font-weight:normal;font-size:40px;line-height:125%;font-family:sans-serif;letter-spacing:0px;word-spacing:0px;fill:#000000;fill-opacity:1;stroke:none;stroke-width:1px;stroke-linecap:butt;stroke-linejoin:miter;stroke-opacity:1"
       x="95.405334"
       y="790.64148"
       id="text4150"
       sodipodi:linespacing="125%"><tspan
         sodipodi:role="line"
         id="tspan4152"
         x="95.405334"
         y="790.64148"
         style="font-size:17.5px">y</tspan></text>
    <path
       style="fill:none;fill-rule:evenodd;stroke:#000000;stroke-width:1px;stroke-linecap:butt;stroke-linejoin:miter;stroke-opacity:1;marker-end:url(#marker4486)"
       d="m 74.111788,878.93357 0,15.6245"
       id="path4502"
       inkscape:connector-curvature="0" />
    <path
       inkscape:connector-curvature="0"
       id="path4231"
       d="m 46.818122,797.0051 0,15.6245"
       style="fill:none;fill-rule:evenodd;stroke:#000000;stroke-width:1px;stroke-linecap:butt;stroke-linejoin:miter;stroke-opacity:1;marker-end:url(#marker4233)" />
    <path
       style="fill:none;fill-rule:evenodd;stroke:#000000;stroke-width:1px;stroke-linecap:butt;stroke-linejoin:miter;stroke-opacity:1;marker-end:url(#marker4443)"
       d="m 100.58356,797.0051 0,15.6245"
       id="path4441"
       inkscape:connector-curvature="0" />
    <path
       style="fill:none;stroke:#000000;stroke-width:0.99999994;fill-opacity:1"
       d="m 54.574026,820.7972 38.450503,0 m 15.255941,0 18.48093,0 0,52.14957 -45.10397,0 m -15.051621,0 -45.143623,0 0,-52.14957 17.896418,0"
       id="rect4144"
       inkscape:connector-curvature="0"
       sodipodi:nodetypes="cccccccccc" />
    <g
       id="g4696"
       transform="translate(3.3719195,-134.37542)">
      <path
         style="fill:none;fill-rule:evenodd;stroke:#000000;stroke-width:1px;stroke-linecap:butt;stroke-linejoin:miter;stroke-opacity:1"
         d="m 35.882026,955.71986 0,-13.21429 -6.428571,-7.14285"
         id="path4662"
         inkscape:connector-curvature="0"
         sodipodi:nodetypes="ccc" />
      <path
         sodipodi:nodetypes="ccc"
         inkscape:connector-curvature="0"
         id="path4680"
         d="m 51.010379,955.71986 0,-13.21429 6.428571,-7.14285"
         style="fill:none;fill-rule:evenodd;stroke:#000000;stroke-width:1px;stroke-linecap:butt;stroke-linejoin:miter;stroke-opacity:1" />
    </g>
    <g
       transform="translate(57.137357,-134.37542)"
       id="g4700">
      <path
         sodipodi:nodetypes="ccc"
         inkscape:connector-curvature="0"
         id="path4702"
         d="m 35.882026,955.71986 0,-13.21429 -6.428571,-7.14285"
         style="fill:none;fill-rule:evenodd;stroke:#000000;stroke-width:1px;stroke-linecap:butt;stroke-linejoin:miter;stroke-opacity:1" />
      <path
         style="fill:none;fill-rule:evenodd;stroke:#000000;stroke-width:1px;stroke-linecap:butt;stroke-linejoin:miter;stroke-opacity:1"
         d="m 51.010379,955.71986 0,-13.21429 6.428571,-7.14285"
         id="path4704"
         inkscape:connector-curvature="0"
         sodipodi:nodetypes="ccc" />
    </g>
    <g
       id="g4179"
       transform="matrix(-1,0,0,-1,117.55799,1828.1404)">
      <path
         style="fill:none;fill-rule:evenodd;stroke:#000000;stroke-width:1px;stroke-linecap:butt;stroke-linejoin:miter;stroke-opacity:1"
         d="m 35.882026,955.71986 0,-13.21429 -6.428571,-7.14285"
         id="path4181"
         inkscape:connector-curvature="0"
         sodipodi:nodetypes="ccc" />
      <path
         sodipodi:nodetypes="ccc"
         inkscape:connector-curvature="0"
         id="path4183"
         d="m 51.010379,955.71986 0,-13.21429 6.428571,-7.14285"
         style="fill:none;fill-rule:evenodd;stroke:#000000;stroke-width:1px;stroke-linecap:butt;stroke-linejoin:miter;stroke-opacity:1" />
    </g>
    <text
       xml:space="preserve"
       style="font-style:normal;font-weight:normal;font-size:17.5px;line-height:125%;font-family:sans-serif;letter-spacing:0px;word-spacing:0px;fill:#000000;fill-opacity:1;stroke:none;stroke-width:1px;stroke-linecap:butt;stroke-linejoin:miter;stroke-opacity:1"
       x="58.017429"
       y="910.07648"
       id="text4568"
       sodipodi:linespacing="125%"><tspan
         sodipodi:role="line"
         id="tspan4570"
         x="58.017429"
         y="910.07648">x∘y </tspan></text>
    <path
       inkscape:connector-curvature="0"
       id="path4263"
       d="m 100.68659,995.8627 0,15.6246"
       style="fill:none;fill-rule:evenodd;stroke:#000000;stroke-width:1px;stroke-linecap:butt;stroke-linejoin:miter;stroke-opacity:1;marker-end:url(#marker4407)" />
    <path
       style="fill:none;fill-rule:evenodd;stroke:#000000;stroke-width:1px;stroke-linecap:butt;stroke-linejoin:miter;stroke-opacity:1;marker-end:url(#marker4450)"
       d="m 73.392926,913.93423 0,15.6245"
       id="path4265"
       inkscape:connector-curvature="0" />
    <path
       inkscape:connector-curvature="0"
       id="path4267"
       d="m 127.15836,913.93423 0,15.6245"
       style="fill:none;fill-rule:evenodd;stroke:#000000;stroke-width:1px;stroke-linecap:butt;stroke-linejoin:miter;stroke-opacity:1;marker-end:url(#marker4541)" />
    <g
       id="g4273"
       transform="translate(29.820454,-19.466596)">
      <path
         style="fill:#ffffff;stroke:#000000;stroke-width:0.99999994"
         d="m 51.328376,957.19293 38.450503,0 m 15.255941,0 18.48093,0 0,52.14957 -45.10397,0 m -15.051621,0 -45.143623,0 0,-52.14957 17.896418,0"
         id="path4275"
         inkscape:connector-curvature="0"
         sodipodi:nodetypes="cccccccccc" />
      <g
         id="g4277"
         transform="translate(0.12626907,2.0203051)">
        <path
           style="fill:none;fill-rule:evenodd;stroke:#000000;stroke-width:1px;stroke-linecap:butt;stroke-linejoin:miter;stroke-opacity:1"
           d="m 35.882026,955.71986 0,-13.21429 -6.428571,-7.14285"
           id="path4279"
           inkscape:connector-curvature="0"
           sodipodi:nodetypes="ccc" />
        <path
           sodipodi:nodetypes="ccc"
           inkscape:connector-curvature="0"
           id="path4281"
           d="m 51.010379,955.71986 0,-13.21429 6.428571,-7.14285"
           style="fill:none;fill-rule:evenodd;stroke:#000000;stroke-width:1px;stroke-linecap:butt;stroke-linejoin:miter;stroke-opacity:1" />
      </g>
      <g
         transform="translate(53.891707,2.0203051)"
         id="g4283">
        <path
           sodipodi:nodetypes="ccc"
           inkscape:connector-curvature="0"
           id="path4285"
           d="m 35.882026,955.71986 0,-13.21429 -6.428571,-7.14285"
           style="fill:none;fill-rule:evenodd;stroke:#000000;stroke-width:1px;stroke-linecap:butt;stroke-linejoin:miter;stroke-opacity:1" />
        <path
           style="fill:none;fill-rule:evenodd;stroke:#000000;stroke-width:1px;stroke-linecap:butt;stroke-linejoin:miter;stroke-opacity:1"
           d="m 51.010379,955.71986 0,-13.21429 6.428571,-7.14285"
           id="path4287"
           inkscape:connector-curvature="0"
           sodipodi:nodetypes="ccc" />
      </g>
      <g
         id="g4289"
         transform="matrix(-1,0,0,-1,114.31234,1964.5361)">
        <path
           style="fill:none;fill-rule:evenodd;stroke:#000000;stroke-width:1px;stroke-linecap:butt;stroke-linejoin:miter;stroke-opacity:1"
           d="m 35.882026,955.71986 0,-13.21429 -6.428571,-7.14285"
           id="path4291"
           inkscape:connector-curvature="0"
           sodipodi:nodetypes="ccc" />
        <path
           sodipodi:nodetypes="ccc"
           inkscape:connector-curvature="0"
           id="path4293"
           d="m 51.010379,955.71986 0,-13.21429 6.428571,-7.14285"
           style="fill:none;fill-rule:evenodd;stroke:#000000;stroke-width:1px;stroke-linecap:butt;stroke-linejoin:miter;stroke-opacity:1" />
      </g>
    </g>
    <text
       sodipodi:linespacing="125%"
       id="text4295"
       y="1031.0055"
       x="67.173409"
       style="font-style:normal;font-weight:normal;font-size:17.5px;line-height:125%;font-family:sans-serif;letter-spacing:0px;word-spacing:0px;fill:#000000;fill-opacity:1;stroke:none;stroke-width:1px;stroke-linecap:butt;stroke-linejoin:miter;stroke-opacity:1"
       xml:space="preserve"><tspan
         y="1031.0055"
         x="67.173409"
         id="tspan4297"
         sodipodi:role="line">(x∘y)∘z </tspan></text>
    <text
       sodipodi:linespacing="125%"
       id="text4487"
       y="790.43628"
       x="147.76929"
       style="font-style:normal;font-weight:normal;font-size:40px;line-height:125%;font-family:sans-serif;letter-spacing:0px;word-spacing:0px;fill:#000000;fill-opacity:1;stroke:none;stroke-width:1px;stroke-linecap:butt;stroke-linejoin:miter;stroke-opacity:1"
       xml:space="preserve"><tspan
         style="font-size:17.5px"
         y="790.43628"
         x="147.76929"
         id="tspan4489"
         sodipodi:role="line">z</tspan></text>
    <path
       style="fill:none;stroke:#000000;stroke-width:0.99999994"
       d="m 152.59755,797.50859 0,116.39685 -25.44016,0"
       id="rect4539"
       inkscape:connector-curvature="0"
       sodipodi:nodetypes="ccc" />
    <text
       sodipodi:linespacing="125%"
       id="text4663"
       y="790.43781"
       x="233.05646"
       style="font-style:normal;font-weight:normal;font-size:40px;line-height:125%;font-family:sans-serif;letter-spacing:0px;word-spacing:0px;fill:#000000;fill-opacity:1;stroke:none;stroke-width:1px;stroke-linecap:butt;stroke-linejoin:miter;stroke-opacity:1"
       xml:space="preserve"><tspan
         style="font-size:17.5px"
         y="790.43781"
         x="233.05646"
         id="tspan4665"
         sodipodi:role="line">x</tspan></text>
    <text
       sodipodi:linespacing="125%"
       id="text4667"
       y="790.64148"
       x="284.00195"
       style="font-style:normal;font-weight:normal;font-size:40px;line-height:125%;font-family:sans-serif;letter-spacing:0px;word-spacing:0px;fill:#000000;fill-opacity:1;stroke:none;stroke-width:1px;stroke-linecap:butt;stroke-linejoin:miter;stroke-opacity:1"
       xml:space="preserve"><tspan
         style="font-size:17.5px"
         y="790.64148"
         x="284.00195"
         id="tspan4669"
         sodipodi:role="line">y</tspan></text>
    <path
       inkscape:connector-curvature="0"
       id="path4671"
       d="m 315.65196,878.93357 0,15.6245"
       style="fill:none;fill-rule:evenodd;stroke:#000000;stroke-width:1px;stroke-linecap:butt;stroke-linejoin:miter;stroke-opacity:1;marker-end:url(#marker4510)" />
    <path
       style="fill:none;fill-rule:evenodd;stroke:#000000;stroke-width:1px;stroke-linecap:butt;stroke-linejoin:miter;stroke-opacity:1;marker-end:url(#marker4233)"
       d="m 342.94563,797.0051 0,15.6245"
       id="path4673"
       inkscape:connector-curvature="0" />
    <path
       inkscape:connector-curvature="0"
       id="path4675"
       d="m 289.18019,797.0051 0,15.6245"
       style="fill:none;fill-rule:evenodd;stroke:#000000;stroke-width:1px;stroke-linecap:butt;stroke-linejoin:miter;stroke-opacity:1;marker-end:url(#marker4930)" />
    <path
       sodipodi:nodetypes="cccccccccc"
       inkscape:connector-curvature="0"
       id="path4679"
       d="m 335.18972,820.7972 -38.4505,0 m -15.25594,0 -18.48093,0 0,52.14957 45.10397,0 m 15.05162,0 45.14362,0 0,-52.14957 -17.89641,0"
       style="fill:none;stroke:#000000;stroke-width:0.99999994;fill-opacity:1" />
    <g
       transform="matrix(-1,0,0,1,386.39183,-134.37542)"
       id="g4681">
      <path
         sodipodi:nodetypes="ccc"
         inkscape:connector-curvature="0"
         id="path4683"
         d="m 35.882026,955.71986 0,-13.21429 -6.428571,-7.14285"
         style="fill:none;fill-rule:evenodd;stroke:#000000;stroke-width:1px;stroke-linecap:butt;stroke-linejoin:miter;stroke-opacity:1" />
      <path
         style="fill:none;fill-rule:evenodd;stroke:#000000;stroke-width:1px;stroke-linecap:butt;stroke-linejoin:miter;stroke-opacity:1"
         d="m 51.010379,955.71986 0,-13.21429 6.428571,-7.14285"
         id="path4685"
         inkscape:connector-curvature="0"
         sodipodi:nodetypes="ccc" />
    </g>
    <g
       id="g4687"
       transform="matrix(-1,0,0,1,332.62639,-134.37542)">
      <path
         style="fill:none;fill-rule:evenodd;stroke:#000000;stroke-width:1px;stroke-linecap:butt;stroke-linejoin:miter;stroke-opacity:1"
         d="m 35.882026,955.71986 0,-13.21429 -6.428571,-7.14285"
         id="path4689"
         inkscape:connector-curvature="0"
         sodipodi:nodetypes="ccc" />
      <path
         sodipodi:nodetypes="ccc"
         inkscape:connector-curvature="0"
         id="path4691"
         d="m 51.010379,955.71986 0,-13.21429 6.428571,-7.14285"
         style="fill:none;fill-rule:evenodd;stroke:#000000;stroke-width:1px;stroke-linecap:butt;stroke-linejoin:miter;stroke-opacity:1" />
    </g>
    <g
       transform="matrix(1,0,0,-1,272.20576,1828.1404)"
       id="g4693">
      <path
         sodipodi:nodetypes="ccc"
         inkscape:connector-curvature="0"
         id="path4695"
         d="m 35.882026,955.71986 0,-13.21429 -6.428571,-7.14285"
         style="fill:none;fill-rule:evenodd;stroke:#000000;stroke-width:1px;stroke-linecap:butt;stroke-linejoin:miter;stroke-opacity:1" />
      <path
         style="fill:none;fill-rule:evenodd;stroke:#000000;stroke-width:1px;stroke-linecap:butt;stroke-linejoin:miter;stroke-opacity:1"
         d="m 51.010379,955.71986 0,-13.21429 6.428571,-7.14285"
         id="path4697"
         inkscape:connector-curvature="0"
         sodipodi:nodetypes="ccc" />
    </g>
    <text
       sodipodi:linespacing="125%"
       id="text4705"
       y="910.07648"
       x="300.1301"
       style="font-style:normal;font-weight:normal;font-size:17.5px;line-height:125%;font-family:sans-serif;letter-spacing:0px;word-spacing:0px;fill:#000000;fill-opacity:1;stroke:none;stroke-width:1px;stroke-linecap:butt;stroke-linejoin:miter;stroke-opacity:1"
       xml:space="preserve"><tspan
         y="910.07648"
         x="300.1301"
         id="tspan4707"
         sodipodi:role="line">y∘z </tspan></text>
    <path
       style="fill:none;fill-rule:evenodd;stroke:#000000;stroke-width:1px;stroke-linecap:butt;stroke-linejoin:miter;stroke-opacity:1;marker-end:url(#marker5130)"
       d="m 289.07716,995.8627 0,15.6246"
       id="path4713"
       inkscape:connector-curvature="0" />
    <path
       inkscape:connector-curvature="0"
       id="path4715"
       d="m 316.37082,913.93423 0,15.6245"
       style="fill:none;fill-rule:evenodd;stroke:#000000;stroke-width:1px;stroke-linecap:butt;stroke-linejoin:miter;stroke-opacity:1;marker-end:url(#marker4327)" />
    <path
       style="fill:none;fill-rule:evenodd;stroke:#000000;stroke-width:1px;stroke-linecap:butt;stroke-linejoin:miter;stroke-opacity:1;marker-end:url(#marker4541)"
       d="m 262.60539,913.93423 0,15.6245"
       id="path4717"
       inkscape:connector-curvature="0" />
    <g
       transform="matrix(-1,0,0,1,359.94329,-19.466597)"
       id="g4719">
      <path
         sodipodi:nodetypes="cccccccccc"
         inkscape:connector-curvature="0"
         id="path4721"
         d="m 51.328376,957.19293 38.450503,0 m 15.255941,0 18.48093,0 0,52.14957 -45.10397,0 m -15.051621,0 -45.143623,0 0,-52.14957 17.896418,0"
         style="fill:#ffffff;stroke:#000000;stroke-width:0.99999994" />
      <g
         transform="translate(0.12626907,2.0203051)"
         id="g4723">
        <path
           sodipodi:nodetypes="ccc"
           inkscape:connector-curvature="0"
           id="path4725"
           d="m 35.882026,955.71986 0,-13.21429 -6.428571,-7.14285"
           style="fill:none;fill-rule:evenodd;stroke:#000000;stroke-width:1px;stroke-linecap:butt;stroke-linejoin:miter;stroke-opacity:1" />
        <path
           style="fill:none;fill-rule:evenodd;stroke:#000000;stroke-width:1px;stroke-linecap:butt;stroke-linejoin:miter;stroke-opacity:1"
           d="m 51.010379,955.71986 0,-13.21429 6.428571,-7.14285"
           id="path4727"
           inkscape:connector-curvature="0"
           sodipodi:nodetypes="ccc" />
      </g>
      <g
         id="g4729"
         transform="translate(53.891707,2.0203051)">
        <path
           style="fill:none;fill-rule:evenodd;stroke:#000000;stroke-width:1px;stroke-linecap:butt;stroke-linejoin:miter;stroke-opacity:1"
           d="m 35.882026,955.71986 0,-13.21429 -6.428571,-7.14285"
           id="path4731"
           inkscape:connector-curvature="0"
           sodipodi:nodetypes="ccc" />
        <path
           sodipodi:nodetypes="ccc"
           inkscape:connector-curvature="0"
           id="path4733"
           d="m 51.010379,955.71986 0,-13.21429 6.428571,-7.14285"
           style="fill:none;fill-rule:evenodd;stroke:#000000;stroke-width:1px;stroke-linecap:butt;stroke-linejoin:miter;stroke-opacity:1" />
      </g>
      <g
         transform="matrix(-1,0,0,-1,114.31234,1964.5361)"
         id="g4735">
        <path
           sodipodi:nodetypes="ccc"
           inkscape:connector-curvature="0"
           id="path4737"
           d="m 35.882026,955.71986 0,-13.21429 -6.428571,-7.14285"
           style="fill:none;fill-rule:evenodd;stroke:#000000;stroke-width:1px;stroke-linecap:butt;stroke-linejoin:miter;stroke-opacity:1" />
        <path
           style="fill:none;fill-rule:evenodd;stroke:#000000;stroke-width:1px;stroke-linecap:butt;stroke-linejoin:miter;stroke-opacity:1"
           d="m 51.010379,955.71986 0,-13.21429 6.428571,-7.14285"
           id="path4739"
           inkscape:connector-curvature="0"
           sodipodi:nodetypes="ccc" />
      </g>
    </g>
    <text
       xml:space="preserve"
       style="font-style:normal;font-weight:normal;font-size:17.5px;line-height:125%;font-family:sans-serif;letter-spacing:0px;word-spacing:0px;fill:#000000;fill-opacity:1;stroke:none;stroke-width:1px;stroke-linecap:butt;stroke-linejoin:miter;stroke-opacity:1"
       x="256.06384"
       y="1031.0055"
       id="text4751"
       sodipodi:linespacing="125%"><tspan
         sodipodi:role="line"
         id="tspan4753"
         x="256.06384"
         y="1031.0055">x∘(y∘z) </tspan></text>
    <text
       xml:space="preserve"
       style="font-style:normal;font-weight:normal;font-size:40px;line-height:125%;font-family:sans-serif;letter-spacing:0px;word-spacing:0px;fill:#000000;fill-opacity:1;stroke:none;stroke-width:1px;stroke-linecap:butt;stroke-linejoin:miter;stroke-opacity:1"
       x="339.15167"
       y="790.43628"
       id="text4763"
       sodipodi:linespacing="125%"><tspan
         sodipodi:role="line"
         id="tspan4765"
         x="339.15167"
         y="790.43628"
         style="font-size:17.5px">z</tspan></text>
    <path
       sodipodi:nodetypes="ccc"
       inkscape:connector-curvature="0"
       id="path4767"
       d="m 237.1662,797.50859 0,116.39685 25.44016,0"
       style="fill:none;stroke:#000000;stroke-width:0.99999994" />
    <g
       style="font-style:normal;font-weight:normal;font-size:40px;line-height:125%;font-family:sans-serif;letter-spacing:0px;word-spacing:0px;fill:#000000;fill-opacity:1;stroke:none;stroke-width:1px;stroke-linecap:butt;stroke-linejoin:miter;stroke-opacity:1"
       id="text5073">
      <path
         d="m 189.40459,1023.3252 10.95459,0 0,1.4355 -10.95459,0 0,-1.4355 z m 0,3.4863 10.95459,0 0,1.4527 -10.95459,0 0,-1.4527 z"
         style="font-size:17.5px"
         id="path4331" />
    </g>
    <rect
       style="fill:#dddddd;fill-opacity:1;stroke:none"
       id="rect5615"
       width="104.23659"
       height="51.065865"
       x="263.48343"
       y="821.30121" />
    <rect
       y="821.34784"
       x="21.832623"
       height="51.065865"
       width="104.23659"
       id="rect5619"
       style="fill:#dddddd;fill-opacity:1;stroke:none" />
    <rect
       style="fill:#dddddd;fill-opacity:1;stroke:none"
       id="rect5621"
       width="104.23659"
       height="51.065865"
       x="48.37252"
       y="938.26892" />
    <rect
       y="938.44629"
       x="236.73601"
       height="50.579342"
       width="103.99333"
       id="rect5617"
       style="fill:#dddddd;fill-opacity:1;stroke:none" />
  </g>
  <g
     inkscape:groupmode="layer"
     id="layer2"
     inkscape:label="question marks"
     style="display:none">
    <g
       transform="translate(0,-768.89764)"
       style="font-style:normal;font-weight:normal;font-size:40px;line-height:125%;font-family:sans-serif;letter-spacing:0px;word-spacing:0px;fill:#000000;fill-opacity:1;stroke:none;stroke-width:1px;stroke-linecap:butt;stroke-linejoin:miter;stroke-opacity:1"
       id="text5485">
      <path
         d="m 191.47124,1020.0403 0.99121,0 0,1.2403 -0.99121,0 0,-1.2403 z m 0.96191,-0.7177 -0.93262,0 0,-0.752 q 0,-0.4931 0.13672,-0.8105 0.13672,-0.3174 0.57617,-0.7373 l 0.43946,-0.4346 q 0.27832,-0.2588 0.40039,-0.4883 0.12695,-0.2295 0.12695,-0.4687 0,-0.4346 -0.32226,-0.7032 -0.31739,-0.2685 -0.84473,-0.2685 -0.38574,0 -0.8252,0.1709 -0.43457,0.1709 -0.9082,0.498 l 0,-0.9179 q 0.45899,-0.2784 0.92774,-0.4151 0.47363,-0.1367 0.97656,-0.1367 0.89844,0 1.44043,0.4736 0.54687,0.4737 0.54687,1.25 0,0.3711 -0.17578,0.708 -0.17578,0.3321 -0.61523,0.752 l -0.42969,0.4199 q -0.22949,0.2295 -0.32715,0.3613 -0.0928,0.127 -0.13184,0.2491 -0.0293,0.1025 -0.0439,0.249 -0.0146,0.1465 -0.0146,0.4004 l 0,0.6006 z"
         style="font-size:10px"
         id="path4326"
         inkscape:connector-curvature="0" />
      <path
         d="m 196.78374,1020.0403 0.99121,0 0,1.2403 -0.99121,0 0,-1.2403 z m 0.96191,-0.7177 -0.93262,0 0,-0.752 q 0,-0.4931 0.13672,-0.8105 0.13672,-0.3174 0.57617,-0.7373 l 0.43946,-0.4346 q 0.27832,-0.2588 0.40039,-0.4883 0.12695,-0.2295 0.12695,-0.4687 0,-0.4346 -0.32226,-0.7032 -0.31739,-0.2685 -0.84473,-0.2685 -0.38574,0 -0.8252,0.1709 -0.43457,0.1709 -0.9082,0.498 l 0,-0.9179 q 0.45899,-0.2784 0.92774,-0.4151 0.47363,-0.1367 0.97656,-0.1367 0.89844,0 1.44043,0.4736 0.54687,0.4737 0.54687,1.25 0,0.3711 -0.17578,0.708 -0.17578,0.3321 -0.61523,0.752 l -0.42969,0.4199 q -0.22949,0.2295 -0.32715,0.3613 -0.0928,0.127 -0.13184,0.2491 -0.0293,0.1025 -0.0439,0.249 -0.0146,0.1465 -0.0146,0.4004 l 0,0.6006 z"
         style="font-size:10px"
         id="path4328"
         inkscape:connector-curvature="0" />
    </g>
  </g>
</svg>
